# AST/ASF file generated using VICON BodyLanguage
# -----------------------------------------------
:version 1.10
:name VICON
:units
  mass 1.0
  length 0.45
  angle deg
:documentation
   .ast/.asf automatically generated from VICON data using
   VICON BodyBuilder and BodyLanguage model FoxedUp or BRILLIANT.MOD
:root
   order TX TY TZ RX RY RZ
   axis XYZ
   position 0 0 0  
   orientation 0 0 0 
:bonedata
  begin
     id 1 
     name lhipjoint
     direction 0.692814 -0.645514 0.321437 
     length 2.38754 
     axis 0 0 0  XYZ
  end
  begin
     id 2 
     name lfemur
     direction 0.34202 -0.939693 0  
     length 6.41921  
     axis 0 0 20  XYZ
    dof rx ry rz
    limits (-160.0 20.0)
           (-70.0 70.0)
           (-60.0 70.0)
  end
  begin
     id 3 
     name ltibia
     direction 0.34202 -0.939693 0   
     length 6.98247   
     axis 0 0 20   XYZ
    dof rx
    limits (-10.0 170.0)
  end
  begin
     id 4 
     name lfoot
     direction 0.0947186 -0.260237 0.960888   
     length 1.83034   
     axis -90 7.62852e-016 20   XYZ
    dof rx rz
    limits (-45.0 90.0)
           (-70.0 20.0)
  end
  begin
     id 5 
     name ltoes
     direction 1.53538e-011 -4.21952e-011 1   
     length 0.920499   
     axis -90 7.62852e-016 20   XYZ
    dof rx
    limits (-90.0 20.0)
  end
  begin
     id 6 
     name rhipjoint
     direction -0.631686 -0.693949 0.345555   
     length 2.2209  
     axis 0 0 0  XYZ 
  end
  begin
     id 7 
     name rfemur
     direction -0.34202 -0.939693 0   
     length 6.49542   
     axis 0 0 -20   XYZ
    dof rx ry rz
    limits (-160.0 20.0)
           (-70.0 70.0)
           (-70.0 60.0)
  end
  begin
     id 8 
     name rtibia
     direction -0.34202 -0.939693 0   
     length 7.21712   
     axis 0 0 -20   XYZ
    dof rx
    limits (-10.0 170.0)
 end
 begin
     id 9 
     name rfoot
     direction -0.0825378 -0.226771 0.970444   
     length 1.89724  
     axis -90 -7.62852e-016 -20   XYZ
    dof rx rz
    limits (-45.0 90.0)
           (-20.0 70.0)
  end
  begin
     id 10 
     name rtoes
     direction -1.53515e-011 -4.22016e-011 1   
     length 0.955868   
     axis -90 -7.62852e-016 -20   XYZ
    dof rx
    limits (-90.0 20.0)
  end
  begin
     id 11 
     name lowerback
     direction -0.0104711 0.984802 -0.173368   
     length 1.84931   
     axis 0 0 0   XYZ
    dof rx ry rz
    limits (-20.0 45.0)
           (-30.0 30.0)
           (-30.0 30.0)
  end
  begin
     id 12 
     name upperback
     direction -0.00286433 0.999996 -0.000382853   
     length 1.85768   
     axis 0 0 0   XYZ
    dof rx ry rz
    limits (-20.0 45.0)
           (-30.0 30.0)
           (-30.0 30.0)
  end
  begin
     id 13 
     name thorax
     direction 0.00167534 0.996793 0.0800069   
     length 1.92   
     axis 0 0 0   XYZ
    dof rx ry rz
    limits (-20.0 45.0)
           (-30.0 30.0)
           (-30.0 30.0)
  end
  begin
     id 14 
     name lowerneck
     direction -0.0672491 0.995415 0.068018   
     length 1.58923   
     axis 0 0 0   XYZ
    dof rx ry rz
    limits (-20.0 45.0)
           (-30.0 30.0)
           (-30.0 30.0)
  end
  begin
     id 15 
     name upperneck
     direction 0.0958019 0.982476 -0.159884   
     length 1.60189   
     axis 0 0 0   XYZ
    dof rx ry rz
    limits (-20.0 45.0)
           (-30.0 30.0)
           (-30.0 30.0)
  end
  begin
     id 16
     name head
     direction 0.032989 0.997338 -0.0650226  
     length 1.61681  
     axis 0 0 0   XYZ
    dof rx ry rz
    limits (-20.0 45.0)
           (-30.0 30.0)
           (-30.0 30.0)
  end
  begin
     id 17 
     name lclavicle
     direction 0.954279 0.298875 -0.00496069  
     length 2.99449  
     axis 0 0 0   XYZ
    dof ry rz
    limits (-20.0 10.0)
           (0.0 20.0)
  end
  begin
     id 18 
     name lhumerus
     direction 1 -4.48985e-011 -4.2057e-027   
     length 4.79185   
     axis 180 -30 -90   XYZ
    dof rx ry rz
    limits (-60.0 90.0)
           (-90.0 90.0)
           (-90.0 90.0)
  end
  begin
     id 19
     name lradius
     direction 1 -4.48945e-011 1.15441e-028   
     length 2.65553   
     axis 180 -30 -90   XYZ
    dof rx
    limits (-10.0 170.0)
  end
  begin
     id 20
     name lwrist
     direction 1 -4.4899e-011 4.8894e-028   
     length 1.32777   
     axis -2.56392e-016 90 90   XYZ
    dof ry
    limits (-180.0 0.0)
 end
  begin
     id 21 
     name lhand
     direction 1 -4.48908e-011 9.7788e-028   
     length 0.743904   
     axis -6.23971e-016 90 90   XYZ
    dof rx rz
    limits (-90.0 90.0)
           (-45.0 45.0)
  end
  begin
     id 22 
     name lfingers
     direction 1 -4.49068e-011 1.95576e-027   
     length 0.599754   
     axis -1.24794e-015 90 90   XYZ
    dof rx
    limits (0.0 90.0)
  end
  begin
     id 23
     name lthumb
     direction 0.707107 -6.34883e-011 0.707107   
     length 0.861131   
     axis -90 45 2.85299e-015   XYZ
    dof rx rz
    limits (-45.0 45.0)
           (-45.0 45.0)
  end
  begin
     id 24 
     name rclavicle
     direction -0.957921 0.286916 0.00811568   
     length 3.06817  
     axis 0 0 0   XYZ 
    dof ry rz
    limits (-10.0 20.0)
           (-20.0 0.0)
  end
  begin
     id 25 
     name rhumerus
     direction -1 -4.48971e-011 -3.07942e-027  
     length 4.77254   
     axis 180 30 90   XYZ
    dof rx ry rz
    limits (-90.0 60.0)
           (-90.0 90.0)
           (-90.0 90.0)
  end
  begin
     id 26 
     name rradius
     direction -1 -4.48957e-011 -9.6815e-028   
     length 2.75995   
     axis 180 30 90   XYZ
    dof rx
    limits (-10.0 170.0)
  end
  begin
     id 27 
     name rwrist
     direction -1 -4.48979e-011 4.8894e-028   
     length 1.37997   
     axis -2.56392e-016 -90 -90   XYZ
    dof ry
    limits (-180.0 0.0)
  end
  begin
     id 28
     name rhand
     direction -1 -4.48906e-011 9.7788e-028   
     length 0.701619   
     axis -6.23971e-016 -90 -90   XYZ
    dof rx rz
    limits (-90.0 90.0)
           (-45.0 45.0)
  end
  begin
     id 29
     name rfingers
     direction -1 -4.49018e-011 1.95576e-027   
     length 0.565663   
     axis -1.24794e-015 -90 -90   XYZ
    dof rx
    limits (0.0 90.0)
  end
  begin
     id 30
     name rthumb
     direction -0.707107 -6.34881e-011 0.707107   
     length 0.812183   
     axis -90 -45 -2.85299e-015   XYZ
    dof rx rz
    limits (-45.0 45.0)
           (-45.0 45.0)
  end
:hierarchy
  begin
    root lhipjoint rhipjoint lowerback
    lhipjoint lfemur
    lfemur ltibia
    ltibia lfoot
    lfoot ltoes
    rhipjoint rfemur
    rfemur rtibia
    rtibia rfoot
    rfoot rtoes
    lowerback upperback
    upperback thorax
    thorax lowerneck lclavicle rclavicle
    lowerneck upperneck
    upperneck head
    lclavicle lhumerus
    lhumerus lradius
    lradius lwrist
    lwrist lhand lthumb
    lhand lfingers
    rclavicle rhumerus
    rhumerus rradius
    rradius rwrist
    rwrist rhand rthumb
    rhand rfingers
  end

#!OML:ASF F:\VICON\USERDATA\INSTALL\rory3\rory3.ASF
:FULLY-SPECIFIED
:DEGREES
561
root 0.550815 15.3021 -1.22243 2.57922 -2.72465 0.988043
lowerback 20.2617 0.682917 -1.82774
upperback 4.43174 0.424273 -1.04356
thorax -6.52458 0.225497 -0.188013
lowerneck -16.537 -3.14489 -7.55443
upperneck 10.2527 -3.52967 7.131
head 6.06946 -1.45222 3.15575
rclavicle 5.06901e-015 -1.78906e-015
rhumerus 3.38254 12.8618 -40.3325
rradius 40.1208
rwrist -40.6855
rhand -1.34857 10.9988
rfingers 7.12502
rthumb 24.2981 -17.4813
lclavicle 5.06901e-015 -1.78906e-015
lhumerus -5.3753 -3.72751 34.9704
lradius 33.4474
lwrist 41.9829
lhand 6.75255 15.2779
lfingers 7.12502
lthumb 32.0401 42.4758
rfemur -26.2703 6.34183 13.3149
rtibia 46.6861
rfoot -18.0558 -7.36407
rtoes -15.4065
lfemur -23.8136 -4.05651 -18.1827
ltibia 43.5935
lfoot -16.8062 2.54319
ltoes -12.7893
562
root 0.550335 15.2966 -1.22064 2.5849 -2.75743 1.04935
lowerback 20.3085 0.721649 -1.857
upperback 4.39931 0.463387 -1.08674
thorax -6.58469 0.245035 -0.228563
lowerneck -16.6003 -3.16457 -7.59787
upperneck 10.2994 -3.56088 7.24633
head 6.10038 -1.45867 3.19699
rclavicle 1.39149e-015 8.34896e-015
rhumerus 2.81961 12.6073 -40.6312
rradius 40.1232
rwrist -40.6145
rhand -1.44504 11.0354
rfingers 7.12502
rthumb 24.2056 -17.457
lclavicle 1.39149e-015 8.34896e-015
lhumerus -5.75132 -3.39764 35.1457
lradius 33.4041
lwrist 41.852
lhand 6.71228 15.2877
lfingers 7.12502
lthumb 32.0018 42.4933
rfemur -26.3314 6.29373 13.251
rtibia 46.7964
rfoot -18.1156 -7.3431
rtoes -15.6229
lfemur -23.8512 -4.02208 -18.2494
ltibia 43.6708
lfoot -16.8703 2.50242
ltoes -12.6078
563
root 0.550202 15.2927 -1.21998 2.57589 -2.76663 1.07413
lowerback 20.3768 0.738193 -1.84242
upperback 4.38409 0.483226 -1.11891
thorax -6.63709 0.254479 -0.277496
lowerneck -16.6737 -3.17006 -7.60838
upperneck 10.3045 -3.57068 7.31266
head 6.11651 -1.45713 3.21892
rclavicle 2.48481e-015 -3.97569e-016
rhumerus 2.3026 12.3341 -40.9458
rradius 40.0804
rwrist -40.6064
rhand -1.46764 10.9901
rfingers 7.12502
rthumb 24.1839 -17.5052
lclavicle 2.48481e-015 -3.97569e-016
lhumerus -6.13719 -3.1382 35.2976
lradius 33.4227
lwrist 41.7967
lhand 6.07622 15.5024
lfingers 7.12502
lthumb 31.3959 42.8277
rfemur -26.3944 6.24843 13.2312
rtibia 46.9128
rfoot -18.154 -7.3262
rtoes -15.7182
lfemur -23.8765 -4.01527 -18.2734
ltibia 43.7562
lfoot -16.8867 2.48075
ltoes -12.5426
564
root 0.549691 15.2891 -1.21919 2.59099 -2.77269 1.00653
lowerback 20.4111 0.729703 -1.73536
upperback 4.35325 0.491485 -1.13809
thorax -6.68776 0.256872 -0.36195
lowerneck -16.754 -3.15532 -7.6347
upperneck 10.3629 -3.55861 7.42683
head 6.15034 -1.44155 3.26167
rclavicle -7.85199e-015 6.16232e-015
rhumerus 1.75598 12.2297 -41.2564
rradius 40.0483
rwrist -40.6447
rhand -1.546 11.0945
rfingers 7.12502
rthumb 24.1088 -17.4108
lclavicle -7.85199e-015 6.16232e-015
lhumerus -6.55642 -2.77491 35.4381
lradius 33.3951
lwrist 41.6971
lhand 5.6483 15.4996
lfingers 7.12502
lthumb 30.9881 42.9033
rfemur -26.4712 6.23002 13.3131
rtibia 47.0261
rfoot -18.1892 -7.3204
rtoes -15.679
lfemur -23.9422 -3.97465 -18.1878
ltibia 43.8603
lfoot -16.9039 2.4149
ltoes -12.5928
565
root 0.549319 15.2842 -1.21795 2.62525 -2.77658 0.943749
lowerback 20.4252 0.712743 -1.63261
upperback 4.31397 0.487739 -1.16443
thorax -6.73682 0.253439 -0.448448
lowerneck -16.867 -3.12649 -7.59915
upperneck 10.443 -3.53371 7.49316
head 6.1934 -1.42029 3.28018
rclavicle -1.98785e-015 1.21259e-014
rhumerus 1.22963 12.0949 -41.6176
rradius 39.9185
rwrist -40.5129
rhand -1.46193 11.498
rfingers 7.12502
rthumb 24.1894 -16.9966
lclavicle -1.98785e-015 1.21259e-014
lhumerus -6.99621 -2.37911 35.5744
lradius 33.3127
lwrist 41.5091
lhand 5.7777 15.3666
lfingers 7.12502
lthumb 31.1115 42.7468
rfemur -26.5695 6.20228 13.3835
rtibia 47.1463
rfoot -18.2736 -7.29169
rtoes -15.663
lfemur -24.0478 -3.87783 -18.1176
ltibia 43.9733
lfoot -16.9407 2.37462
ltoes -12.7096
566
root 0.548663 15.2789 -1.21574 2.69004 -2.7695 1.03954
lowerback 20.4265 0.712366 -1.674
upperback 4.24997 0.472222 -1.23047
thorax -6.80663 0.246716 -0.492742
lowerneck -16.9758 -3.10834 -7.57334
upperneck 10.5212 -3.52056 7.55376
head 6.23618 -1.40559 3.29724
rclavicle 4.27387e-015 5.76476e-015
rhumerus 0.668904 12.0006 -41.9553
rradius 39.8215
rwrist -40.3603
rhand -1.52845 11.6892
rfingers 7.12502
rthumb 24.1256 -16.8139
lclavicle 4.27387e-015 5.76476e-015
lhumerus -7.48346 -2.22128 35.7187
lradius 33.2853
lwrist 41.4102
lhand 5.81063 15.3654
lfingers 7.12502
lthumb 31.1429 42.7396
rfemur -26.7082 6.14372 13.2709
rtibia 47.2706
rfoot -18.3627 -7.21264
rtoes -15.4522
lfemur -24.178 -3.82774 -18.2198
ltibia 44.0771
lfoot -16.9791 2.38085
ltoes -13.137
567
root 0.547715 15.2741 -1.21294 2.73098 -2.78707 1.13931
lowerback 20.4614 0.723258 -1.74148
upperback 4.17067 0.465005 -1.28974
thorax -6.91117 0.244654 -0.517645
lowerneck -17.0454 -3.09142 -7.5949
upperneck 10.6109 -3.50556 7.6426
head 6.2774 -1.39037 3.33179
rclavicle 2.98177e-016 -9.14409e-015
rhumerus 0.0769385 11.9626 -42.2915
rradius 39.7543
rwrist -40.1884
rhand -1.65789 11.7581
rfingers 7.12502
rthumb 24.0015 -16.7613
lclavicle 2.98177e-016 -9.14409e-015
lhumerus -8.04341 -2.28019 35.8373
lradius 33.3379
lwrist 41.4553
lhand 5.75772 15.33
lfingers 7.12502
lthumb 31.0924 42.7138
rfemur -26.8217 6.12242 13.156
rtibia 47.3931
rfoot -18.428 -7.17782
rtoes -15.3573
lfemur -24.2474 -3.84873 -18.3166
ltibia 44.1572
lfoot -17.0185 2.37416
ltoes -13.0093
568
root 0.547281 15.2703 -1.20798 2.76687 -2.82858 1.16826
lowerback 20.4163 0.729707 -1.73179
upperback 4.12175 0.471435 -1.34312
thorax -6.9399 0.24742 -0.582371
lowerneck -17.091 -3.06948 -7.56891
upperneck 10.6588 -3.49228 7.71519
head 6.3003 -1.37585 3.35292
rclavicle -8.24956e-015 -1.39149e-014
rhumerus -0.498414 11.7739 -42.6844
rradius 39.6405
rwrist -39.8456
rhand -1.42903 11.9888
rfingers 7.12502
rthumb 24.2209 -16.5016
lclavicle -8.24956e-015 -1.39149e-014
lhumerus -8.55854 -2.13134 35.9338
lradius 33.3902
lwrist 41.3687
lhand 5.80247 15.5349
lfingers 7.12502
lthumb 31.1351 42.9105
rfemur -26.9081 6.10216 13.1262
rtibia 47.5064
rfoot -18.4609 -7.22555
rtoes -15.8662
lfemur -24.2907 -3.82514 -18.3457
ltibia 44.2223
lfoot -17.0836 2.35678
ltoes -12.7443
569
root 0.547761 15.2672 -1.20257 2.75772 -2.85105 1.22156
lowerback 20.4025 0.741088 -1.73121
upperback 4.09694 0.482502 -1.39007
thorax -6.95915 0.252529 -0.636324
lowerneck -17.1713 -3.06545 -7.53429
upperneck 10.7214 -3.49696 7.7427
head 6.33401 -1.37254 3.35594
rclavicle 7.25564e-015 -7.95139e-016
rhumerus -1.03775 11.4794 -43.0511
rradius 39.4599
rwrist -39.4584
rhand -1.5733 12.0041
rfingers 7.12502
rthumb 24.0826 -16.5046
lclavicle 7.25564e-015 -7.95139e-016
lhumerus -9.08112 -1.96476 36.082
lradius 33.4392
lwrist 41.1949
lhand 5.72738 15.6669
lfingers 7.12502
lthumb 31.0635 43.0563
rfemur -26.9345 6.09664 13.0625
rtibia 47.617
rfoot -18.5316 -7.22025
rtoes -16.0538
lfemur -24.2727 -3.8075 -18.414
ltibia 44.27
lfoot -17.1476 2.3341
ltoes -12.6147
